# xmcd CD database file
#
# Track frame offsets:
#	150
#	19261
#	38375
#	55351
#	86096
#	332550
#
# Disc length: 4440 seconds
#
# Revision: 0
# Processed by: cddbd v1.5PL3 Copyright (c) Steve Scherf et al.
# Submitted via: CDex 1.40Beta9
#
DISCID=44115606
DTITLE=Soulhead - GET UP! ep
DYEAR=1900
DGENRE=R&B
TTITLE0=GET UP!
TTITLE1=SHINNING FOREVER
TTITLE2=DANCE WITH ME
TTITLE3=TONIGHT THE NIGHT
TTITLE4=Data1
TTITLE5=Data2
EXTD=ID3G: 14
EXTT0=
EXTT1=
EXTT2=
EXTT3=
EXTT4=
EXTT5=
PLAYORDER=
